<mxfile host="app.diagrams.net" modified="2023-04-04T10:26:22.723Z" agent="Mozilla/5.0 (Windows NT 10.0; Win64; x64) AppleWebKit/537.36 (KHTML, like Gecko) Chrome/111.0.0.0 Safari/537.36" etag="HHoF_24k4ZCMcPc3Aa6o" version="21.1.2" type="github" pages="9">
  <diagram id="C5RBs43oDa-KdzZeNtuy" name="Mandatory Fields">
    <mxGraphModel dx="880" dy="452" grid="1" gridSize="10" guides="1" tooltips="1" connect="1" arrows="1" fold="1" page="1" pageScale="1" pageWidth="827" pageHeight="1169" math="0" shadow="0">
      <root>
        <mxCell id="WIyWlLk6GJQsqaUBKTNV-0" />
        <mxCell id="WIyWlLk6GJQsqaUBKTNV-1" parent="WIyWlLk6GJQsqaUBKTNV-0" />
        <mxCell id="WIyWlLk6GJQsqaUBKTNV-2" value="" style="rounded=0;html=1;jettySize=auto;orthogonalLoop=1;fontSize=11;endArrow=block;endFill=0;endSize=8;strokeWidth=1;shadow=0;labelBackgroundColor=none;edgeStyle=orthogonalEdgeStyle;" parent="WIyWlLk6GJQsqaUBKTNV-1" source="WIyWlLk6GJQsqaUBKTNV-3" target="WIyWlLk6GJQsqaUBKTNV-6" edge="1">
          <mxGeometry relative="1" as="geometry" />
        </mxCell>
        <mxCell id="WIyWlLk6GJQsqaUBKTNV-3" value="check Mandatory Fields Present" style="rounded=1;whiteSpace=wrap;html=1;fontSize=12;glass=0;strokeWidth=1;shadow=0;" parent="WIyWlLk6GJQsqaUBKTNV-1" vertex="1">
          <mxGeometry x="40" y="133" width="120" height="40" as="geometry" />
        </mxCell>
        <mxCell id="WIyWlLk6GJQsqaUBKTNV-4" value="Yes" style="rounded=0;html=1;jettySize=auto;orthogonalLoop=1;fontSize=11;endArrow=block;endFill=0;endSize=8;strokeWidth=1;shadow=0;labelBackgroundColor=none;edgeStyle=orthogonalEdgeStyle;" parent="WIyWlLk6GJQsqaUBKTNV-1" source="WIyWlLk6GJQsqaUBKTNV-6" edge="1">
          <mxGeometry y="20" relative="1" as="geometry">
            <mxPoint as="offset" />
            <mxPoint x="330" y="273" as="targetPoint" />
          </mxGeometry>
        </mxCell>
        <mxCell id="WIyWlLk6GJQsqaUBKTNV-5" value="No" style="edgeStyle=orthogonalEdgeStyle;rounded=0;html=1;jettySize=auto;orthogonalLoop=1;fontSize=11;endArrow=block;endFill=0;endSize=8;strokeWidth=1;shadow=0;labelBackgroundColor=none;" parent="WIyWlLk6GJQsqaUBKTNV-1" source="WIyWlLk6GJQsqaUBKTNV-6" target="WIyWlLk6GJQsqaUBKTNV-7" edge="1">
          <mxGeometry y="10" relative="1" as="geometry">
            <mxPoint as="offset" />
          </mxGeometry>
        </mxCell>
        <mxCell id="WIyWlLk6GJQsqaUBKTNV-6" value="All Present" style="rhombus;whiteSpace=wrap;html=1;shadow=0;fontFamily=Helvetica;fontSize=12;align=center;strokeWidth=1;spacing=6;spacingTop=-4;" parent="WIyWlLk6GJQsqaUBKTNV-1" vertex="1">
          <mxGeometry x="280" y="113" width="100" height="80" as="geometry" />
        </mxCell>
        <mxCell id="fISz7vWK99dAuhPHRys6-1" style="edgeStyle=orthogonalEdgeStyle;rounded=0;orthogonalLoop=1;jettySize=auto;html=1;entryX=0.5;entryY=0;entryDx=0;entryDy=0;" parent="WIyWlLk6GJQsqaUBKTNV-1" source="WIyWlLk6GJQsqaUBKTNV-7" target="fISz7vWK99dAuhPHRys6-0" edge="1">
          <mxGeometry relative="1" as="geometry" />
        </mxCell>
        <mxCell id="WIyWlLk6GJQsqaUBKTNV-7" value="extraction fails&lt;br&gt;validation inprogress&lt;br&gt;&lt;div style=&quot;&quot;&gt;&lt;span style=&quot;background-color: initial;&quot;&gt;PostSAP inprogress&lt;/span&gt;&lt;/div&gt;" style="rounded=1;whiteSpace=wrap;html=1;fontSize=12;glass=0;strokeWidth=1;shadow=0;align=left;" parent="WIyWlLk6GJQsqaUBKTNV-1" vertex="1">
          <mxGeometry x="550" y="118" width="130" height="70" as="geometry" />
        </mxCell>
        <mxCell id="WIyWlLk6GJQsqaUBKTNV-11" value="Start Vendor Name Validation Process..." style="rounded=1;whiteSpace=wrap;html=1;fontSize=12;glass=0;strokeWidth=1;shadow=0;" parent="WIyWlLk6GJQsqaUBKTNV-1" vertex="1">
          <mxGeometry x="255" y="403" width="150" height="40" as="geometry" />
        </mxCell>
        <mxCell id="fISz7vWK99dAuhPHRys6-0" value="Task assigned to Account Payable" style="rounded=1;whiteSpace=wrap;html=1;fontSize=12;glass=0;strokeWidth=1;shadow=0;" parent="WIyWlLk6GJQsqaUBKTNV-1" vertex="1">
          <mxGeometry x="555" y="243" width="120" height="40" as="geometry" />
        </mxCell>
        <mxCell id="52Yj7BXI9naq8_dZovOU-3" style="edgeStyle=orthogonalEdgeStyle;rounded=0;orthogonalLoop=1;jettySize=auto;html=1;exitX=0.5;exitY=1;exitDx=0;exitDy=0;entryX=0.5;entryY=0;entryDx=0;entryDy=0;" parent="WIyWlLk6GJQsqaUBKTNV-1" source="52Yj7BXI9naq8_dZovOU-0" target="WIyWlLk6GJQsqaUBKTNV-11" edge="1">
          <mxGeometry relative="1" as="geometry" />
        </mxCell>
        <mxCell id="52Yj7BXI9naq8_dZovOU-0" value="extraction success" style="rounded=1;whiteSpace=wrap;html=1;fontSize=12;glass=0;strokeWidth=1;shadow=0;align=left;" parent="WIyWlLk6GJQsqaUBKTNV-1" vertex="1">
          <mxGeometry x="265" y="273" width="130" height="60" as="geometry" />
        </mxCell>
        <mxCell id="H89FKBo0Dzx30jLG9RdD-0" value="Mandatory Fields" style="text;html=1;align=center;verticalAlign=middle;resizable=0;points=[];autosize=1;strokeColor=none;fillColor=none;fontSize=20;" vertex="1" parent="WIyWlLk6GJQsqaUBKTNV-1">
          <mxGeometry x="620" y="20" width="180" height="40" as="geometry" />
        </mxCell>
      </root>
    </mxGraphModel>
  </diagram>
  <diagram name="Vendor Name 100" id="xeKI6oWiTGmPrsFGjI2a">
    <mxGraphModel dx="880" dy="452" grid="1" gridSize="10" guides="1" tooltips="1" connect="1" arrows="1" fold="1" page="1" pageScale="1" pageWidth="827" pageHeight="1169" math="0" shadow="0">
      <root>
        <mxCell id="GEyq8QfW8XVwPVx9Geoc-0" />
        <mxCell id="GEyq8QfW8XVwPVx9Geoc-1" parent="GEyq8QfW8XVwPVx9Geoc-0" />
        <mxCell id="GEyq8QfW8XVwPVx9Geoc-5" value="No" style="edgeStyle=orthogonalEdgeStyle;rounded=0;html=1;jettySize=auto;orthogonalLoop=1;fontSize=11;endArrow=block;endFill=0;endSize=8;strokeWidth=1;shadow=0;labelBackgroundColor=none;" parent="GEyq8QfW8XVwPVx9Geoc-1" source="GEyq8QfW8XVwPVx9Geoc-6" target="GEyq8QfW8XVwPVx9Geoc-8" edge="1">
          <mxGeometry y="10" relative="1" as="geometry">
            <mxPoint as="offset" />
          </mxGeometry>
        </mxCell>
        <mxCell id="joRaf-Un_7jefoNx6RUr-8" style="edgeStyle=orthogonalEdgeStyle;rounded=0;orthogonalLoop=1;jettySize=auto;html=1;entryX=0.5;entryY=0;entryDx=0;entryDy=0;" parent="GEyq8QfW8XVwPVx9Geoc-1" source="GEyq8QfW8XVwPVx9Geoc-6" target="GEyq8QfW8XVwPVx9Geoc-9" edge="1">
          <mxGeometry relative="1" as="geometry" />
        </mxCell>
        <mxCell id="GEyq8QfW8XVwPVx9Geoc-6" value="invoiceData.getRecipientName() != null&lt;br style=&quot;border-color: var(--border-color);&quot;&gt;&amp;amp;&amp;amp;&lt;br style=&quot;border-color: var(--border-color);&quot;&gt;&amp;nbsp;invoiceData.getRecipientName() != &quot;&quot;" style="rhombus;whiteSpace=wrap;html=1;shadow=0;fontFamily=Helvetica;fontSize=12;align=center;strokeWidth=1;spacing=6;spacingTop=-4;" parent="GEyq8QfW8XVwPVx9Geoc-1" vertex="1">
          <mxGeometry x="124" y="31" width="350" height="170" as="geometry" />
        </mxCell>
        <mxCell id="GEyq8QfW8XVwPVx9Geoc-8" value="vendor name match fails (100)&lt;br&gt;validation fails" style="rounded=1;whiteSpace=wrap;html=1;fontSize=12;glass=0;strokeWidth=1;shadow=0;align=left;" parent="GEyq8QfW8XVwPVx9Geoc-1" vertex="1">
          <mxGeometry x="604" y="236" width="180" height="70" as="geometry" />
        </mxCell>
        <mxCell id="joRaf-Un_7jefoNx6RUr-1" style="edgeStyle=orthogonalEdgeStyle;rounded=0;orthogonalLoop=1;jettySize=auto;html=1;entryX=0.5;entryY=0;entryDx=0;entryDy=0;" parent="GEyq8QfW8XVwPVx9Geoc-1" source="GEyq8QfW8XVwPVx9Geoc-9" target="joRaf-Un_7jefoNx6RUr-0" edge="1">
          <mxGeometry relative="1" as="geometry" />
        </mxCell>
        <mxCell id="GEyq8QfW8XVwPVx9Geoc-9" value="getVendorDetailsByName" style="rounded=1;whiteSpace=wrap;html=1;fontSize=12;glass=0;strokeWidth=1;shadow=0;" parent="GEyq8QfW8XVwPVx9Geoc-1" vertex="1">
          <mxGeometry x="209" y="306" width="180" height="30" as="geometry" />
        </mxCell>
        <mxCell id="joRaf-Un_7jefoNx6RUr-3" style="edgeStyle=orthogonalEdgeStyle;rounded=0;orthogonalLoop=1;jettySize=auto;html=1;exitX=1;exitY=0.5;exitDx=0;exitDy=0;entryX=0;entryY=0.5;entryDx=0;entryDy=0;" parent="GEyq8QfW8XVwPVx9Geoc-1" source="joRaf-Un_7jefoNx6RUr-0" target="GEyq8QfW8XVwPVx9Geoc-8" edge="1">
          <mxGeometry relative="1" as="geometry">
            <mxPoint x="574" y="271" as="targetPoint" />
          </mxGeometry>
        </mxCell>
        <mxCell id="joRaf-Un_7jefoNx6RUr-6" style="edgeStyle=orthogonalEdgeStyle;rounded=0;orthogonalLoop=1;jettySize=auto;html=1;exitX=0.5;exitY=1;exitDx=0;exitDy=0;entryX=0.5;entryY=0;entryDx=0;entryDy=0;" parent="GEyq8QfW8XVwPVx9Geoc-1" source="joRaf-Un_7jefoNx6RUr-0" target="joRaf-Un_7jefoNx6RUr-5" edge="1">
          <mxGeometry relative="1" as="geometry" />
        </mxCell>
        <mxCell id="joRaf-Un_7jefoNx6RUr-0" value="if vendor exist" style="rhombus;whiteSpace=wrap;html=1;shadow=0;fontFamily=Helvetica;fontSize=12;align=center;strokeWidth=1;spacing=6;spacingTop=-4;" parent="GEyq8QfW8XVwPVx9Geoc-1" vertex="1">
          <mxGeometry x="239" y="431" width="120" height="80" as="geometry" />
        </mxCell>
        <mxCell id="joRaf-Un_7jefoNx6RUr-2" value="Yes" style="text;html=1;align=center;verticalAlign=middle;resizable=0;points=[];autosize=1;strokeColor=none;fillColor=none;" parent="GEyq8QfW8XVwPVx9Geoc-1" vertex="1">
          <mxGeometry x="304" y="581" width="40" height="30" as="geometry" />
        </mxCell>
        <mxCell id="joRaf-Un_7jefoNx6RUr-4" value="No" style="text;html=1;align=center;verticalAlign=middle;resizable=0;points=[];autosize=1;strokeColor=none;fillColor=none;" parent="GEyq8QfW8XVwPVx9Geoc-1" vertex="1">
          <mxGeometry x="389" y="441" width="40" height="30" as="geometry" />
        </mxCell>
        <mxCell id="joRaf-Un_7jefoNx6RUr-5" value="vendor name match success(100)&lt;br&gt;&lt;br&gt;Start Duplicate Invoice Validation Process..." style="rounded=1;whiteSpace=wrap;html=1;fontSize=12;glass=0;strokeWidth=1;shadow=0;align=left;" parent="GEyq8QfW8XVwPVx9Geoc-1" vertex="1">
          <mxGeometry x="179" y="631" width="240" height="70" as="geometry" />
        </mxCell>
        <mxCell id="joRaf-Un_7jefoNx6RUr-9" value="Yes" style="text;html=1;align=center;verticalAlign=middle;resizable=0;points=[];autosize=1;strokeColor=none;fillColor=none;" parent="GEyq8QfW8XVwPVx9Geoc-1" vertex="1">
          <mxGeometry x="304" y="251" width="40" height="30" as="geometry" />
        </mxCell>
        <mxCell id="LkoA9iBZ3Ux9h3JwsPzn-0" value="Vendor Name 100" style="text;html=1;align=center;verticalAlign=middle;resizable=0;points=[];autosize=1;strokeColor=none;fillColor=none;fontSize=20;" vertex="1" parent="GEyq8QfW8XVwPVx9Geoc-1">
          <mxGeometry x="620" y="20" width="180" height="40" as="geometry" />
        </mxCell>
      </root>
    </mxGraphModel>
  </diagram>
  <diagram name="Duplicate Invoice 110" id="ny8uPrNMtchfUcqOVGPN">
    <mxGraphModel dx="880" dy="452" grid="1" gridSize="10" guides="1" tooltips="1" connect="1" arrows="1" fold="1" page="1" pageScale="1" pageWidth="827" pageHeight="1169" math="0" shadow="0">
      <root>
        <mxCell id="5fZuDVEklZM3lYwPOzZ7-0" />
        <mxCell id="5fZuDVEklZM3lYwPOzZ7-1" parent="5fZuDVEklZM3lYwPOzZ7-0" />
        <mxCell id="5fZuDVEklZM3lYwPOzZ7-2" value="No" style="edgeStyle=orthogonalEdgeStyle;rounded=0;html=1;jettySize=auto;orthogonalLoop=1;fontSize=11;endArrow=block;endFill=0;endSize=8;strokeWidth=1;shadow=0;labelBackgroundColor=none;" parent="5fZuDVEklZM3lYwPOzZ7-1" source="5fZuDVEklZM3lYwPOzZ7-4" target="5fZuDVEklZM3lYwPOzZ7-5" edge="1">
          <mxGeometry y="10" relative="1" as="geometry">
            <mxPoint as="offset" />
          </mxGeometry>
        </mxCell>
        <mxCell id="gbaXrT7PtU5A1yUlChdh-5" style="edgeStyle=orthogonalEdgeStyle;rounded=0;orthogonalLoop=1;jettySize=auto;html=1;exitX=0.5;exitY=1;exitDx=0;exitDy=0;entryX=0.5;entryY=0;entryDx=0;entryDy=0;" parent="5fZuDVEklZM3lYwPOzZ7-1" source="5fZuDVEklZM3lYwPOzZ7-4" target="gbaXrT7PtU5A1yUlChdh-4" edge="1">
          <mxGeometry relative="1" as="geometry" />
        </mxCell>
        <mxCell id="5fZuDVEklZM3lYwPOzZ7-4" value="InvoiceRef() != null&lt;br&gt;&amp;amp;&amp;amp;&lt;br&gt;InvoiceDate() != null&lt;br&gt;&amp;amp;&amp;amp;&lt;br&gt;vendorMaster != null &lt;br&gt;&amp;amp;&amp;amp; &lt;br&gt;vendorMaster.getVendorNo() != null" style="rhombus;whiteSpace=wrap;html=1;shadow=0;fontFamily=Helvetica;fontSize=12;align=center;strokeWidth=1;spacing=6;spacingTop=-4;horizontal=1;verticalAlign=middle;labelPosition=center;verticalLabelPosition=middle;" parent="5fZuDVEklZM3lYwPOzZ7-1" vertex="1">
          <mxGeometry x="110" y="31" width="364" height="199" as="geometry" />
        </mxCell>
        <mxCell id="5fZuDVEklZM3lYwPOzZ7-5" value="duplicate invoice match fails (110)&lt;br&gt;validation fails" style="rounded=1;whiteSpace=wrap;html=1;fontSize=12;glass=0;strokeWidth=1;shadow=0;align=left;" parent="5fZuDVEklZM3lYwPOzZ7-1" vertex="1">
          <mxGeometry x="610" y="260" width="200" height="70" as="geometry" />
        </mxCell>
        <mxCell id="5fZuDVEklZM3lYwPOzZ7-12" value="No" style="text;html=1;align=center;verticalAlign=middle;resizable=0;points=[];autosize=1;strokeColor=none;fillColor=none;" parent="5fZuDVEklZM3lYwPOzZ7-1" vertex="1">
          <mxGeometry x="290" y="510" width="40" height="30" as="geometry" />
        </mxCell>
        <mxCell id="5fZuDVEklZM3lYwPOzZ7-13" value="duplicate invoice&amp;nbsp;match success(110)&lt;br&gt;&lt;br&gt;Start PO Validation Process..." style="rounded=1;whiteSpace=wrap;html=1;fontSize=12;glass=0;strokeWidth=1;shadow=0;align=left;" parent="5fZuDVEklZM3lYwPOzZ7-1" vertex="1">
          <mxGeometry x="172" y="560" width="240" height="70" as="geometry" />
        </mxCell>
        <mxCell id="5fZuDVEklZM3lYwPOzZ7-14" value="Yes" style="text;html=1;align=center;verticalAlign=middle;resizable=0;points=[];autosize=1;strokeColor=none;fillColor=none;" parent="5fZuDVEklZM3lYwPOzZ7-1" vertex="1">
          <mxGeometry x="290" y="236" width="40" height="30" as="geometry" />
        </mxCell>
        <mxCell id="gbaXrT7PtU5A1yUlChdh-8" style="edgeStyle=orthogonalEdgeStyle;rounded=0;orthogonalLoop=1;jettySize=auto;html=1;exitX=1;exitY=0.5;exitDx=0;exitDy=0;" parent="5fZuDVEklZM3lYwPOzZ7-1" source="gbaXrT7PtU5A1yUlChdh-3" target="5fZuDVEklZM3lYwPOzZ7-5" edge="1">
          <mxGeometry relative="1" as="geometry" />
        </mxCell>
        <mxCell id="gbaXrT7PtU5A1yUlChdh-9" value="" style="edgeStyle=orthogonalEdgeStyle;rounded=0;orthogonalLoop=1;jettySize=auto;html=1;" parent="5fZuDVEklZM3lYwPOzZ7-1" source="gbaXrT7PtU5A1yUlChdh-3" target="5fZuDVEklZM3lYwPOzZ7-13" edge="1">
          <mxGeometry relative="1" as="geometry" />
        </mxCell>
        <mxCell id="gbaXrT7PtU5A1yUlChdh-3" value="InvoiceDate() is in&amp;nbsp;&lt;br&gt;current fiscal year&lt;br&gt;&amp;amp;&amp;amp;&lt;br&gt;isVendorInvRefExist" style="rhombus;whiteSpace=wrap;html=1;shadow=0;fontFamily=Helvetica;fontSize=12;align=center;strokeWidth=1;spacing=6;spacingTop=-4;" parent="5fZuDVEklZM3lYwPOzZ7-1" vertex="1">
          <mxGeometry x="181" y="350" width="222" height="130" as="geometry" />
        </mxCell>
        <mxCell id="gbaXrT7PtU5A1yUlChdh-6" value="" style="edgeStyle=orthogonalEdgeStyle;rounded=0;orthogonalLoop=1;jettySize=auto;html=1;" parent="5fZuDVEklZM3lYwPOzZ7-1" source="gbaXrT7PtU5A1yUlChdh-4" target="gbaXrT7PtU5A1yUlChdh-3" edge="1">
          <mxGeometry relative="1" as="geometry" />
        </mxCell>
        <mxCell id="gbaXrT7PtU5A1yUlChdh-4" value="vendorInvoiceRef = vendorMaster.getVendorNo().concat(invoiceRef.concat(year.toString())" style="rounded=1;whiteSpace=wrap;html=1;fontSize=12;glass=0;strokeWidth=1;shadow=0;" parent="5fZuDVEklZM3lYwPOzZ7-1" vertex="1">
          <mxGeometry x="42" y="281" width="500" height="30" as="geometry" />
        </mxCell>
        <mxCell id="gbaXrT7PtU5A1yUlChdh-7" value="Yes" style="text;html=1;align=center;verticalAlign=middle;resizable=0;points=[];autosize=1;strokeColor=none;fillColor=none;" parent="5fZuDVEklZM3lYwPOzZ7-1" vertex="1">
          <mxGeometry x="420" y="380" width="40" height="30" as="geometry" />
        </mxCell>
        <mxCell id="GWVVxQ3mIVjHDeCRVGp6-0" value="Duplicate Invoice 110" style="text;html=1;align=center;verticalAlign=middle;resizable=0;points=[];autosize=1;strokeColor=none;fillColor=none;fontSize=20;" vertex="1" parent="5fZuDVEklZM3lYwPOzZ7-1">
          <mxGeometry x="600" y="20" width="210" height="40" as="geometry" />
        </mxCell>
      </root>
    </mxGraphModel>
  </diagram>
  <diagram name="PO Validation 190" id="QlxdeV87lX8dXFG3_laH">
    <mxGraphModel dx="880" dy="452" grid="1" gridSize="10" guides="1" tooltips="1" connect="1" arrows="1" fold="1" page="1" pageScale="1" pageWidth="827" pageHeight="1169" math="0" shadow="0">
      <root>
        <mxCell id="Qsd1zziGAJ3sXPpNQjHW-0" />
        <mxCell id="Qsd1zziGAJ3sXPpNQjHW-1" parent="Qsd1zziGAJ3sXPpNQjHW-0" />
        <mxCell id="Qsd1zziGAJ3sXPpNQjHW-2" value="No" style="edgeStyle=orthogonalEdgeStyle;rounded=0;html=1;jettySize=auto;orthogonalLoop=1;fontSize=11;endArrow=block;endFill=0;endSize=8;strokeWidth=1;shadow=0;labelBackgroundColor=none;" parent="Qsd1zziGAJ3sXPpNQjHW-1" source="Qsd1zziGAJ3sXPpNQjHW-4" target="Qsd1zziGAJ3sXPpNQjHW-5" edge="1">
          <mxGeometry y="10" relative="1" as="geometry">
            <mxPoint as="offset" />
          </mxGeometry>
        </mxCell>
        <mxCell id="Qsd1zziGAJ3sXPpNQjHW-3" style="edgeStyle=orthogonalEdgeStyle;rounded=0;orthogonalLoop=1;jettySize=auto;html=1;exitX=0.5;exitY=1;exitDx=0;exitDy=0;entryX=0.5;entryY=0;entryDx=0;entryDy=0;" parent="Qsd1zziGAJ3sXPpNQjHW-1" source="Qsd1zziGAJ3sXPpNQjHW-4" target="Qsd1zziGAJ3sXPpNQjHW-13" edge="1">
          <mxGeometry relative="1" as="geometry" />
        </mxCell>
        <mxCell id="Qsd1zziGAJ3sXPpNQjHW-4" value="vendorDetails.getVendorNo() != null &lt;br&gt;&amp;amp;&amp;amp; &lt;br&gt;&lt;div style=&quot;&quot;&gt;&lt;span style=&quot;background-color: initial;&quot;&gt;customerOrderDetails.getCustomerOrder() != null&lt;/span&gt;&lt;/div&gt;" style="rhombus;whiteSpace=wrap;html=1;shadow=0;fontFamily=Helvetica;fontSize=12;align=center;strokeWidth=1;spacing=6;spacingTop=-4;horizontal=1;verticalAlign=middle;labelPosition=center;verticalLabelPosition=middle;" parent="Qsd1zziGAJ3sXPpNQjHW-1" vertex="1">
          <mxGeometry x="120" y="82" width="364" height="199" as="geometry" />
        </mxCell>
        <mxCell id="v0q49C-ZAa6aPUNlLaJE-4" value="" style="edgeStyle=orthogonalEdgeStyle;rounded=0;orthogonalLoop=1;jettySize=auto;html=1;" parent="Qsd1zziGAJ3sXPpNQjHW-1" source="Qsd1zziGAJ3sXPpNQjHW-5" target="v0q49C-ZAa6aPUNlLaJE-0" edge="1">
          <mxGeometry relative="1" as="geometry" />
        </mxCell>
        <mxCell id="Qsd1zziGAJ3sXPpNQjHW-5" value="PO Validation match fails (190)&lt;br&gt;validation fails" style="rounded=1;whiteSpace=wrap;html=1;fontSize=12;glass=0;strokeWidth=1;shadow=0;align=left;" parent="Qsd1zziGAJ3sXPpNQjHW-1" vertex="1">
          <mxGeometry x="620" y="250" width="200" height="70" as="geometry" />
        </mxCell>
        <mxCell id="Qsd1zziGAJ3sXPpNQjHW-6" value="No" style="text;html=1;align=center;verticalAlign=middle;resizable=0;points=[];autosize=1;strokeColor=none;fillColor=none;" parent="Qsd1zziGAJ3sXPpNQjHW-1" vertex="1">
          <mxGeometry x="320" y="490" width="40" height="30" as="geometry" />
        </mxCell>
        <mxCell id="Qsd1zziGAJ3sXPpNQjHW-7" value="PO Validation&amp;nbsp;match success(190)&lt;br&gt;&lt;br&gt;Start Description Validation Process..." style="rounded=1;whiteSpace=wrap;html=1;fontSize=12;glass=0;strokeWidth=1;shadow=0;align=left;" parent="Qsd1zziGAJ3sXPpNQjHW-1" vertex="1">
          <mxGeometry x="163" y="680" width="278" height="70" as="geometry" />
        </mxCell>
        <mxCell id="Qsd1zziGAJ3sXPpNQjHW-8" value="Yes" style="text;html=1;align=center;verticalAlign=middle;resizable=0;points=[];autosize=1;strokeColor=none;fillColor=none;" parent="Qsd1zziGAJ3sXPpNQjHW-1" vertex="1">
          <mxGeometry x="300" y="300" width="40" height="30" as="geometry" />
        </mxCell>
        <mxCell id="Qsd1zziGAJ3sXPpNQjHW-10" value="" style="edgeStyle=orthogonalEdgeStyle;rounded=0;orthogonalLoop=1;jettySize=auto;html=1;" parent="Qsd1zziGAJ3sXPpNQjHW-1" source="Qsd1zziGAJ3sXPpNQjHW-11" target="Qsd1zziGAJ3sXPpNQjHW-7" edge="1">
          <mxGeometry relative="1" as="geometry" />
        </mxCell>
        <mxCell id="v0q49C-ZAa6aPUNlLaJE-5" style="edgeStyle=orthogonalEdgeStyle;rounded=0;orthogonalLoop=1;jettySize=auto;html=1;exitX=1;exitY=0.5;exitDx=0;exitDy=0;" parent="Qsd1zziGAJ3sXPpNQjHW-1" source="Qsd1zziGAJ3sXPpNQjHW-11" edge="1">
          <mxGeometry relative="1" as="geometry">
            <mxPoint x="570" y="290" as="targetPoint" />
          </mxGeometry>
        </mxCell>
        <mxCell id="Qsd1zziGAJ3sXPpNQjHW-11" value="POHeaderData != null&lt;br&gt;&amp;amp;&amp;amp;&lt;br&gt;POHeaderData &amp;gt; 0" style="rhombus;whiteSpace=wrap;html=1;shadow=0;fontFamily=Helvetica;fontSize=12;align=center;strokeWidth=1;spacing=6;spacingTop=-4;" parent="Qsd1zziGAJ3sXPpNQjHW-1" vertex="1">
          <mxGeometry x="191" y="455" width="222" height="130" as="geometry" />
        </mxCell>
        <mxCell id="Qsd1zziGAJ3sXPpNQjHW-12" value="" style="edgeStyle=orthogonalEdgeStyle;rounded=0;orthogonalLoop=1;jettySize=auto;html=1;" parent="Qsd1zziGAJ3sXPpNQjHW-1" source="Qsd1zziGAJ3sXPpNQjHW-13" target="Qsd1zziGAJ3sXPpNQjHW-11" edge="1">
          <mxGeometry relative="1" as="geometry" />
        </mxCell>
        <mxCell id="Qsd1zziGAJ3sXPpNQjHW-13" value="getPoHeaderByVendorNoAndPurchDoc" style="rounded=1;whiteSpace=wrap;html=1;fontSize=12;glass=0;strokeWidth=1;shadow=0;" parent="Qsd1zziGAJ3sXPpNQjHW-1" vertex="1">
          <mxGeometry x="168" y="350" width="268" height="30" as="geometry" />
        </mxCell>
        <mxCell id="Qsd1zziGAJ3sXPpNQjHW-14" value="Yes" style="text;html=1;align=center;verticalAlign=middle;resizable=0;points=[];autosize=1;strokeColor=none;fillColor=none;" parent="Qsd1zziGAJ3sXPpNQjHW-1" vertex="1">
          <mxGeometry x="300" y="610" width="40" height="30" as="geometry" />
        </mxCell>
        <mxCell id="v0q49C-ZAa6aPUNlLaJE-0" value="Task assigned to Buyer" style="rounded=1;whiteSpace=wrap;html=1;fontSize=12;glass=0;strokeWidth=1;shadow=0;align=left;" parent="Qsd1zziGAJ3sXPpNQjHW-1" vertex="1">
          <mxGeometry x="620" y="360" width="200" height="70" as="geometry" />
        </mxCell>
        <mxCell id="v0q49C-ZAa6aPUNlLaJE-6" value="No" style="text;html=1;align=center;verticalAlign=middle;resizable=0;points=[];autosize=1;strokeColor=none;fillColor=none;" parent="Qsd1zziGAJ3sXPpNQjHW-1" vertex="1">
          <mxGeometry x="444" y="490" width="40" height="30" as="geometry" />
        </mxCell>
        <mxCell id="wbYb2fWVD5t1rrFKwue4-0" value="PO Validation 190" style="text;html=1;align=center;verticalAlign=middle;resizable=0;points=[];autosize=1;strokeColor=none;fillColor=none;fontSize=20;" vertex="1" parent="Qsd1zziGAJ3sXPpNQjHW-1">
          <mxGeometry x="610" y="10" width="180" height="40" as="geometry" />
        </mxCell>
      </root>
    </mxGraphModel>
  </diagram>
  <diagram name="Description Validation 200" id="zbGm_kWKnLR4h5EG7IBR">
    <mxGraphModel dx="880" dy="452" grid="1" gridSize="10" guides="1" tooltips="1" connect="1" arrows="1" fold="1" page="1" pageScale="1" pageWidth="827" pageHeight="1169" math="0" shadow="0">
      <root>
        <mxCell id="8-1IwATD3WHLKUTED8IT-0" />
        <mxCell id="8-1IwATD3WHLKUTED8IT-1" parent="8-1IwATD3WHLKUTED8IT-0" />
        <mxCell id="lL8VMPTBI8LRyve6kalr-17" style="edgeStyle=orthogonalEdgeStyle;rounded=0;orthogonalLoop=1;jettySize=auto;html=1;" parent="8-1IwATD3WHLKUTED8IT-1" source="8-1IwATD3WHLKUTED8IT-4" target="8-1IwATD3WHLKUTED8IT-8" edge="1">
          <mxGeometry relative="1" as="geometry" />
        </mxCell>
        <mxCell id="lL8VMPTBI8LRyve6kalr-18" style="edgeStyle=orthogonalEdgeStyle;rounded=0;orthogonalLoop=1;jettySize=auto;html=1;exitX=1;exitY=0.5;exitDx=0;exitDy=0;" parent="8-1IwATD3WHLKUTED8IT-1" source="8-1IwATD3WHLKUTED8IT-4" edge="1">
          <mxGeometry relative="1" as="geometry">
            <mxPoint x="550" y="251" as="targetPoint" />
            <Array as="points">
              <mxPoint x="320" y="990" />
              <mxPoint x="640" y="990" />
              <mxPoint x="640" y="441" />
              <mxPoint x="550" y="441" />
            </Array>
          </mxGeometry>
        </mxCell>
        <mxCell id="8-1IwATD3WHLKUTED8IT-4" value="finalSize == matchCount" style="rhombus;whiteSpace=wrap;html=1;shadow=0;fontFamily=Helvetica;fontSize=12;align=center;strokeWidth=1;spacing=6;spacingTop=-4;horizontal=1;verticalAlign=middle;labelPosition=center;verticalLabelPosition=middle;" parent="8-1IwATD3WHLKUTED8IT-1" vertex="1">
          <mxGeometry x="90" y="920" width="230" height="138" as="geometry" />
        </mxCell>
        <mxCell id="8-1IwATD3WHLKUTED8IT-7" value="Yes" style="text;html=1;align=center;verticalAlign=middle;resizable=0;points=[];autosize=1;strokeColor=none;fillColor=none;" parent="8-1IwATD3WHLKUTED8IT-1" vertex="1">
          <mxGeometry x="200" y="1131" width="40" height="30" as="geometry" />
        </mxCell>
        <mxCell id="8-1IwATD3WHLKUTED8IT-8" value="Desc Validation&amp;nbsp;match success(200)&lt;br&gt;&lt;br&gt;Start Payment Term Validation Process..." style="rounded=1;whiteSpace=wrap;html=1;fontSize=12;glass=0;strokeWidth=1;shadow=0;align=left;" parent="8-1IwATD3WHLKUTED8IT-1" vertex="1">
          <mxGeometry x="66" y="1091" width="278" height="70" as="geometry" />
        </mxCell>
        <mxCell id="lL8VMPTBI8LRyve6kalr-2" style="edgeStyle=orthogonalEdgeStyle;rounded=0;orthogonalLoop=1;jettySize=auto;html=1;" parent="8-1IwATD3WHLKUTED8IT-1" source="lL8VMPTBI8LRyve6kalr-0" target="lL8VMPTBI8LRyve6kalr-1" edge="1">
          <mxGeometry relative="1" as="geometry" />
        </mxCell>
        <mxCell id="lL8VMPTBI8LRyve6kalr-4" style="edgeStyle=orthogonalEdgeStyle;rounded=0;orthogonalLoop=1;jettySize=auto;html=1;exitX=1;exitY=0.5;exitDx=0;exitDy=0;entryX=0;entryY=0.5;entryDx=0;entryDy=0;" parent="8-1IwATD3WHLKUTED8IT-1" source="lL8VMPTBI8LRyve6kalr-0" target="lL8VMPTBI8LRyve6kalr-3" edge="1">
          <mxGeometry relative="1" as="geometry" />
        </mxCell>
        <mxCell id="lL8VMPTBI8LRyve6kalr-0" value="getProductDescription().&lt;br&gt;contains(item.getSupplierMaterialNumber()" style="rhombus;whiteSpace=wrap;html=1;shadow=0;fontFamily=Helvetica;fontSize=12;align=center;strokeWidth=1;spacing=6;spacingTop=-4;horizontal=1;verticalAlign=middle;labelPosition=center;verticalLabelPosition=middle;" parent="8-1IwATD3WHLKUTED8IT-1" vertex="1">
          <mxGeometry x="60" y="411" width="290" height="199" as="geometry" />
        </mxCell>
        <mxCell id="lL8VMPTBI8LRyve6kalr-5" style="edgeStyle=orthogonalEdgeStyle;rounded=0;orthogonalLoop=1;jettySize=auto;html=1;exitX=1;exitY=0.5;exitDx=0;exitDy=0;" parent="8-1IwATD3WHLKUTED8IT-1" source="lL8VMPTBI8LRyve6kalr-1" edge="1">
          <mxGeometry relative="1" as="geometry">
            <mxPoint x="410" y="511" as="targetPoint" />
          </mxGeometry>
        </mxCell>
        <mxCell id="lL8VMPTBI8LRyve6kalr-1" value="getProductDescription().&lt;br&gt;contains(item.getShortText()" style="rhombus;whiteSpace=wrap;html=1;shadow=0;fontFamily=Helvetica;fontSize=12;align=center;strokeWidth=1;spacing=6;spacingTop=-4;horizontal=1;verticalAlign=middle;labelPosition=center;verticalLabelPosition=middle;" parent="8-1IwATD3WHLKUTED8IT-1" vertex="1">
          <mxGeometry x="35" y="691" width="340" height="199" as="geometry" />
        </mxCell>
        <mxCell id="lL8VMPTBI8LRyve6kalr-3" value="matchCount = matchCount + 1;" style="rounded=1;whiteSpace=wrap;html=1;fontSize=12;glass=0;strokeWidth=1;shadow=0;align=left;" parent="8-1IwATD3WHLKUTED8IT-1" vertex="1">
          <mxGeometry x="441" y="475.5" width="179" height="70" as="geometry" />
        </mxCell>
        <mxCell id="lL8VMPTBI8LRyve6kalr-6" value="Yes" style="text;html=1;align=center;verticalAlign=middle;resizable=0;points=[];autosize=1;strokeColor=none;fillColor=none;" parent="8-1IwATD3WHLKUTED8IT-1" vertex="1">
          <mxGeometry x="350" y="475.5" width="40" height="30" as="geometry" />
        </mxCell>
        <mxCell id="lL8VMPTBI8LRyve6kalr-7" value="Yes" style="text;html=1;align=center;verticalAlign=middle;resizable=0;points=[];autosize=1;strokeColor=none;fillColor=none;" parent="8-1IwATD3WHLKUTED8IT-1" vertex="1">
          <mxGeometry x="373" y="681" width="40" height="30" as="geometry" />
        </mxCell>
        <mxCell id="lL8VMPTBI8LRyve6kalr-8" value="No" style="text;html=1;align=center;verticalAlign=middle;resizable=0;points=[];autosize=1;strokeColor=none;fillColor=none;" parent="8-1IwATD3WHLKUTED8IT-1" vertex="1">
          <mxGeometry x="210" y="631" width="40" height="30" as="geometry" />
        </mxCell>
        <mxCell id="lL8VMPTBI8LRyve6kalr-11" value="" style="edgeStyle=orthogonalEdgeStyle;rounded=0;orthogonalLoop=1;jettySize=auto;html=1;" parent="8-1IwATD3WHLKUTED8IT-1" source="lL8VMPTBI8LRyve6kalr-9" target="lL8VMPTBI8LRyve6kalr-10" edge="1">
          <mxGeometry relative="1" as="geometry" />
        </mxCell>
        <mxCell id="lL8VMPTBI8LRyve6kalr-9" value="List&amp;lt;POItemDataDto&amp;gt; =&amp;nbsp;getPoItemDataByPoId&lt;br&gt;List&amp;lt;ServicePOLineItem&amp;gt; =&amp;nbsp;getServicePOLineItemByPoId&lt;br&gt;finalSize = goodsItems.size() + servicePoItemList.size()" style="rounded=1;whiteSpace=wrap;html=1;fontSize=12;glass=0;strokeWidth=1;shadow=0;align=left;" parent="8-1IwATD3WHLKUTED8IT-1" vertex="1">
          <mxGeometry x="40" y="51" width="330" height="70" as="geometry" />
        </mxCell>
        <mxCell id="lL8VMPTBI8LRyve6kalr-13" style="edgeStyle=orthogonalEdgeStyle;rounded=0;orthogonalLoop=1;jettySize=auto;html=1;" parent="8-1IwATD3WHLKUTED8IT-1" source="lL8VMPTBI8LRyve6kalr-10" target="lL8VMPTBI8LRyve6kalr-12" edge="1">
          <mxGeometry relative="1" as="geometry" />
        </mxCell>
        <mxCell id="lL8VMPTBI8LRyve6kalr-16" style="edgeStyle=orthogonalEdgeStyle;rounded=0;orthogonalLoop=1;jettySize=auto;html=1;entryX=0.5;entryY=0;entryDx=0;entryDy=0;" parent="8-1IwATD3WHLKUTED8IT-1" source="lL8VMPTBI8LRyve6kalr-10" target="lL8VMPTBI8LRyve6kalr-0" edge="1">
          <mxGeometry relative="1" as="geometry" />
        </mxCell>
        <mxCell id="lL8VMPTBI8LRyve6kalr-10" value="list size &amp;gt; 0" style="rhombus;whiteSpace=wrap;html=1;shadow=0;fontFamily=Helvetica;fontSize=12;align=center;strokeWidth=1;spacing=6;spacingTop=-4;horizontal=1;verticalAlign=middle;labelPosition=center;verticalLabelPosition=middle;" parent="8-1IwATD3WHLKUTED8IT-1" vertex="1">
          <mxGeometry x="105" y="191" width="200" height="110" as="geometry" />
        </mxCell>
        <mxCell id="lL8VMPTBI8LRyve6kalr-12" value="Desc Validation match fails (200)&lt;br&gt;validation fails" style="rounded=1;whiteSpace=wrap;html=1;fontSize=12;glass=0;strokeWidth=1;shadow=0;align=left;" parent="8-1IwATD3WHLKUTED8IT-1" vertex="1">
          <mxGeometry x="590" y="211" width="200" height="70" as="geometry" />
        </mxCell>
        <mxCell id="lL8VMPTBI8LRyve6kalr-14" value="Yes" style="text;html=1;align=center;verticalAlign=middle;resizable=0;points=[];autosize=1;strokeColor=none;fillColor=none;" parent="8-1IwATD3WHLKUTED8IT-1" vertex="1">
          <mxGeometry x="210" y="341" width="40" height="30" as="geometry" />
        </mxCell>
        <mxCell id="lL8VMPTBI8LRyve6kalr-15" value="No" style="text;html=1;align=center;verticalAlign=middle;resizable=0;points=[];autosize=1;strokeColor=none;fillColor=none;" parent="8-1IwATD3WHLKUTED8IT-1" vertex="1">
          <mxGeometry x="325" y="221" width="40" height="30" as="geometry" />
        </mxCell>
        <mxCell id="lWGoEmeJLB6GurPb15zS-0" value="No" style="text;html=1;align=center;verticalAlign=middle;resizable=0;points=[];autosize=1;strokeColor=none;fillColor=none;" vertex="1" parent="8-1IwATD3WHLKUTED8IT-1">
          <mxGeometry x="394" y="970" width="40" height="30" as="geometry" />
        </mxCell>
        <mxCell id="lWGoEmeJLB6GurPb15zS-1" value="Yes" style="text;html=1;align=center;verticalAlign=middle;resizable=0;points=[];autosize=1;strokeColor=none;fillColor=none;" vertex="1" parent="8-1IwATD3WHLKUTED8IT-1">
          <mxGeometry x="210" y="1058" width="40" height="30" as="geometry" />
        </mxCell>
        <mxCell id="k4t-21SRHBM5uge6mdEc-0" value="Description Validation 200" style="text;html=1;align=center;verticalAlign=middle;resizable=0;points=[];autosize=1;strokeColor=none;fillColor=none;fontSize=20;" vertex="1" parent="8-1IwATD3WHLKUTED8IT-1">
          <mxGeometry x="565" y="11" width="250" height="40" as="geometry" />
        </mxCell>
      </root>
    </mxGraphModel>
  </diagram>
  <diagram name="Payment Term 201" id="Jgr35GBIn9OqwFIiHk9c">
    <mxGraphModel dx="880" dy="1621" grid="1" gridSize="10" guides="1" tooltips="1" connect="1" arrows="1" fold="1" page="1" pageScale="1" pageWidth="827" pageHeight="1169" math="0" shadow="0">
      <root>
        <mxCell id="P-zoeP4JS96smTAtgnuE-0" />
        <mxCell id="P-zoeP4JS96smTAtgnuE-1" parent="P-zoeP4JS96smTAtgnuE-0" />
        <mxCell id="P-zoeP4JS96smTAtgnuE-7" value="Payment Term Validation&amp;nbsp;match success(201)&lt;br&gt;&lt;br&gt;Start Price Validation Process..." style="rounded=1;whiteSpace=wrap;html=1;fontSize=12;glass=0;strokeWidth=1;shadow=0;align=left;" parent="P-zoeP4JS96smTAtgnuE-1" vertex="1">
          <mxGeometry x="101" y="-400" width="278" height="70" as="geometry" />
        </mxCell>
        <mxCell id="P-zoeP4JS96smTAtgnuE-8" value="Task assigned to Buyer" style="rounded=1;whiteSpace=wrap;html=1;fontSize=12;glass=0;strokeWidth=1;shadow=0;align=left;" parent="P-zoeP4JS96smTAtgnuE-1" vertex="1">
          <mxGeometry x="570" y="-870" width="220" height="70" as="geometry" />
        </mxCell>
        <mxCell id="P-zoeP4JS96smTAtgnuE-24" value="Yes" style="text;html=1;align=center;verticalAlign=middle;resizable=0;points=[];autosize=1;strokeColor=none;fillColor=none;" parent="P-zoeP4JS96smTAtgnuE-1" vertex="1">
          <mxGeometry x="240" y="-560" width="40" height="30" as="geometry" />
        </mxCell>
        <mxCell id="P-zoeP4JS96smTAtgnuE-25" value="No" style="text;html=1;align=center;verticalAlign=middle;resizable=0;points=[];autosize=1;strokeColor=none;fillColor=none;" parent="P-zoeP4JS96smTAtgnuE-1" vertex="1">
          <mxGeometry x="335" y="-1060" width="40" height="30" as="geometry" />
        </mxCell>
        <mxCell id="pornP_LhZmqUEke2wxAV-2" value="" style="edgeStyle=orthogonalEdgeStyle;rounded=0;orthogonalLoop=1;jettySize=auto;html=1;" parent="P-zoeP4JS96smTAtgnuE-1" source="pornP_LhZmqUEke2wxAV-0" target="pornP_LhZmqUEke2wxAV-1" edge="1">
          <mxGeometry relative="1" as="geometry" />
        </mxCell>
        <mxCell id="pornP_LhZmqUEke2wxAV-8" style="edgeStyle=orthogonalEdgeStyle;rounded=0;orthogonalLoop=1;jettySize=auto;html=1;" parent="P-zoeP4JS96smTAtgnuE-1" source="pornP_LhZmqUEke2wxAV-0" target="pornP_LhZmqUEke2wxAV-7" edge="1">
          <mxGeometry relative="1" as="geometry" />
        </mxCell>
        <mxCell id="pornP_LhZmqUEke2wxAV-0" value="invoiceData.getPoId() != null&lt;br&gt;&amp;amp;&amp;amp;&lt;br&gt;CustomerDetails.getCustomerOrder() != null&lt;br&gt;&amp;amp;&amp;amp;&lt;br&gt;invoiceData.getPaymentTerm() != null" style="rhombus;whiteSpace=wrap;html=1;shadow=0;fontFamily=Helvetica;fontSize=12;align=center;strokeWidth=1;spacing=6;spacingTop=-4;horizontal=1;verticalAlign=middle;labelPosition=center;verticalLabelPosition=middle;" parent="P-zoeP4JS96smTAtgnuE-1" vertex="1">
          <mxGeometry x="20" y="-1140" width="310" height="220" as="geometry" />
        </mxCell>
        <mxCell id="pornP_LhZmqUEke2wxAV-5" style="edgeStyle=orthogonalEdgeStyle;rounded=0;orthogonalLoop=1;jettySize=auto;html=1;entryX=0.5;entryY=0;entryDx=0;entryDy=0;" parent="P-zoeP4JS96smTAtgnuE-1" source="pornP_LhZmqUEke2wxAV-1" target="pornP_LhZmqUEke2wxAV-3" edge="1">
          <mxGeometry relative="1" as="geometry" />
        </mxCell>
        <mxCell id="pornP_LhZmqUEke2wxAV-1" value="paymentTerm = getPaymentTermByPurchDoc" style="rounded=1;whiteSpace=wrap;html=1;fontSize=12;glass=0;strokeWidth=1;shadow=0;align=left;" parent="P-zoeP4JS96smTAtgnuE-1" vertex="1">
          <mxGeometry x="40.5" y="-850" width="269" height="70" as="geometry" />
        </mxCell>
        <mxCell id="pornP_LhZmqUEke2wxAV-10" style="edgeStyle=orthogonalEdgeStyle;rounded=0;orthogonalLoop=1;jettySize=auto;html=1;" parent="P-zoeP4JS96smTAtgnuE-1" source="pornP_LhZmqUEke2wxAV-3" target="P-zoeP4JS96smTAtgnuE-7" edge="1">
          <mxGeometry relative="1" as="geometry" />
        </mxCell>
        <mxCell id="pornP_LhZmqUEke2wxAV-11" style="edgeStyle=orthogonalEdgeStyle;rounded=0;orthogonalLoop=1;jettySize=auto;html=1;" parent="P-zoeP4JS96smTAtgnuE-1" source="pornP_LhZmqUEke2wxAV-3" edge="1">
          <mxGeometry relative="1" as="geometry">
            <mxPoint x="530" y="-1033" as="targetPoint" />
          </mxGeometry>
        </mxCell>
        <mxCell id="pornP_LhZmqUEke2wxAV-3" value="paymentTerm != null&lt;br&gt;&amp;amp;&amp;amp;&lt;br&gt;paymentTerm..contains(invoiceData.getPaymentTerm())" style="rhombus;whiteSpace=wrap;html=1;shadow=0;fontFamily=Helvetica;fontSize=12;align=center;strokeWidth=1;spacing=6;spacingTop=-4;horizontal=1;verticalAlign=middle;labelPosition=center;verticalLabelPosition=middle;" parent="P-zoeP4JS96smTAtgnuE-1" vertex="1">
          <mxGeometry y="-720" width="480" height="110" as="geometry" />
        </mxCell>
        <mxCell id="pornP_LhZmqUEke2wxAV-6" value="Yes" style="text;html=1;align=center;verticalAlign=middle;resizable=0;points=[];autosize=1;strokeColor=none;fillColor=none;" parent="P-zoeP4JS96smTAtgnuE-1" vertex="1">
          <mxGeometry x="170" y="-900" width="40" height="30" as="geometry" />
        </mxCell>
        <mxCell id="pornP_LhZmqUEke2wxAV-9" style="edgeStyle=orthogonalEdgeStyle;rounded=0;orthogonalLoop=1;jettySize=auto;html=1;entryX=0.565;entryY=0.029;entryDx=0;entryDy=0;entryPerimeter=0;" parent="P-zoeP4JS96smTAtgnuE-1" source="pornP_LhZmqUEke2wxAV-7" target="P-zoeP4JS96smTAtgnuE-8" edge="1">
          <mxGeometry relative="1" as="geometry" />
        </mxCell>
        <mxCell id="pornP_LhZmqUEke2wxAV-7" value="Payment Term Validation match fails (201)&lt;br&gt;validation fails" style="rounded=1;whiteSpace=wrap;html=1;fontSize=12;glass=0;strokeWidth=1;shadow=0;align=left;" parent="P-zoeP4JS96smTAtgnuE-1" vertex="1">
          <mxGeometry x="580" y="-1065" width="230" height="70" as="geometry" />
        </mxCell>
        <mxCell id="pornP_LhZmqUEke2wxAV-12" value="No" style="text;html=1;align=center;verticalAlign=middle;resizable=0;points=[];autosize=1;strokeColor=none;fillColor=none;" parent="P-zoeP4JS96smTAtgnuE-1" vertex="1">
          <mxGeometry x="490" y="-760" width="40" height="30" as="geometry" />
        </mxCell>
        <mxCell id="9iUy28GPDZPSDeYX1qpm-0" value="Payment Term 201" style="text;html=1;align=center;verticalAlign=middle;resizable=0;points=[];autosize=1;strokeColor=none;fillColor=none;fontSize=20;" vertex="1" parent="P-zoeP4JS96smTAtgnuE-1">
          <mxGeometry x="620" y="-1160" width="190" height="40" as="geometry" />
        </mxCell>
      </root>
    </mxGraphModel>
  </diagram>
  <diagram name="Price Mismatch Validation 210" id="qrVO9PmL-pRE_u3QeoQ3">
    <mxGraphModel dx="880" dy="452" grid="1" gridSize="10" guides="1" tooltips="1" connect="1" arrows="1" fold="1" page="1" pageScale="1" pageWidth="827" pageHeight="1169" math="0" shadow="0">
      <root>
        <mxCell id="YjpxrNrQ26Oj-FBMNOhv-0" />
        <mxCell id="YjpxrNrQ26Oj-FBMNOhv-1" parent="YjpxrNrQ26Oj-FBMNOhv-0" />
        <mxCell id="YjpxrNrQ26Oj-FBMNOhv-2" style="edgeStyle=orthogonalEdgeStyle;rounded=0;orthogonalLoop=1;jettySize=auto;html=1;" edge="1" parent="YjpxrNrQ26Oj-FBMNOhv-1" source="YjpxrNrQ26Oj-FBMNOhv-4" target="YjpxrNrQ26Oj-FBMNOhv-6">
          <mxGeometry relative="1" as="geometry" />
        </mxCell>
        <mxCell id="YjpxrNrQ26Oj-FBMNOhv-3" style="edgeStyle=orthogonalEdgeStyle;rounded=0;orthogonalLoop=1;jettySize=auto;html=1;exitX=1;exitY=0.5;exitDx=0;exitDy=0;" edge="1" parent="YjpxrNrQ26Oj-FBMNOhv-1" source="YjpxrNrQ26Oj-FBMNOhv-4">
          <mxGeometry relative="1" as="geometry">
            <mxPoint x="550" y="251" as="targetPoint" />
            <Array as="points">
              <mxPoint x="320" y="990" />
              <mxPoint x="640" y="990" />
              <mxPoint x="640" y="441" />
              <mxPoint x="550" y="441" />
            </Array>
          </mxGeometry>
        </mxCell>
        <mxCell id="YjpxrNrQ26Oj-FBMNOhv-4" value="finalSize == matchCount" style="rhombus;whiteSpace=wrap;html=1;shadow=0;fontFamily=Helvetica;fontSize=12;align=center;strokeWidth=1;spacing=6;spacingTop=-4;horizontal=1;verticalAlign=middle;labelPosition=center;verticalLabelPosition=middle;" vertex="1" parent="YjpxrNrQ26Oj-FBMNOhv-1">
          <mxGeometry x="90" y="920" width="230" height="138" as="geometry" />
        </mxCell>
        <mxCell id="YjpxrNrQ26Oj-FBMNOhv-5" value="Yes" style="text;html=1;align=center;verticalAlign=middle;resizable=0;points=[];autosize=1;strokeColor=none;fillColor=none;" vertex="1" parent="YjpxrNrQ26Oj-FBMNOhv-1">
          <mxGeometry x="200" y="1131" width="40" height="30" as="geometry" />
        </mxCell>
        <mxCell id="YjpxrNrQ26Oj-FBMNOhv-6" value="Price Validation&amp;nbsp;match success(210)&lt;br&gt;&lt;br&gt;Start UOM Validation Process..." style="rounded=1;whiteSpace=wrap;html=1;fontSize=12;glass=0;strokeWidth=1;shadow=0;align=left;" vertex="1" parent="YjpxrNrQ26Oj-FBMNOhv-1">
          <mxGeometry x="66" y="1091" width="278" height="70" as="geometry" />
        </mxCell>
        <mxCell id="YjpxrNrQ26Oj-FBMNOhv-7" style="edgeStyle=orthogonalEdgeStyle;rounded=0;orthogonalLoop=1;jettySize=auto;html=1;" edge="1" parent="YjpxrNrQ26Oj-FBMNOhv-1" source="YjpxrNrQ26Oj-FBMNOhv-9" target="YjpxrNrQ26Oj-FBMNOhv-11">
          <mxGeometry relative="1" as="geometry" />
        </mxCell>
        <mxCell id="YjpxrNrQ26Oj-FBMNOhv-8" style="edgeStyle=orthogonalEdgeStyle;rounded=0;orthogonalLoop=1;jettySize=auto;html=1;exitX=1;exitY=0.5;exitDx=0;exitDy=0;entryX=0;entryY=0.5;entryDx=0;entryDy=0;" edge="1" parent="YjpxrNrQ26Oj-FBMNOhv-1" source="YjpxrNrQ26Oj-FBMNOhv-9" target="YjpxrNrQ26Oj-FBMNOhv-12">
          <mxGeometry relative="1" as="geometry" />
        </mxCell>
        <mxCell id="YjpxrNrQ26Oj-FBMNOhv-9" value="item.getMaterial().&lt;br&gt;equals(prod.getItem()) &lt;br&gt;&amp;amp;&amp;amp;&lt;br&gt;&amp;nbsp;item.getNetValue().equals((Double) prod.getTotalAmount())" style="rhombus;whiteSpace=wrap;html=1;shadow=0;fontFamily=Helvetica;fontSize=12;align=center;strokeWidth=1;spacing=6;spacingTop=-4;horizontal=1;verticalAlign=middle;labelPosition=center;verticalLabelPosition=middle;" vertex="1" parent="YjpxrNrQ26Oj-FBMNOhv-1">
          <mxGeometry x="60" y="411" width="290" height="199" as="geometry" />
        </mxCell>
        <mxCell id="YjpxrNrQ26Oj-FBMNOhv-10" style="edgeStyle=orthogonalEdgeStyle;rounded=0;orthogonalLoop=1;jettySize=auto;html=1;exitX=1;exitY=0.5;exitDx=0;exitDy=0;" edge="1" parent="YjpxrNrQ26Oj-FBMNOhv-1" source="YjpxrNrQ26Oj-FBMNOhv-11">
          <mxGeometry relative="1" as="geometry">
            <mxPoint x="410" y="511" as="targetPoint" />
          </mxGeometry>
        </mxCell>
        <mxCell id="YjpxrNrQ26Oj-FBMNOhv-11" value="item.getExtItemNo().&lt;br&gt;equals(prod.getItem())&lt;br style=&quot;border-color: var(--border-color);&quot;&gt;&amp;amp;&amp;amp;&lt;br style=&quot;border-color: var(--border-color);&quot;&gt;&amp;nbsp;item.getNetValue().equals((Double) &lt;br&gt;prod.getTotalAmount())" style="rhombus;whiteSpace=wrap;html=1;shadow=0;fontFamily=Helvetica;fontSize=12;align=center;strokeWidth=1;spacing=6;spacingTop=-4;horizontal=1;verticalAlign=middle;labelPosition=center;verticalLabelPosition=middle;" vertex="1" parent="YjpxrNrQ26Oj-FBMNOhv-1">
          <mxGeometry x="35" y="691" width="340" height="199" as="geometry" />
        </mxCell>
        <mxCell id="YjpxrNrQ26Oj-FBMNOhv-12" value="matchCount = matchCount + 1;" style="rounded=1;whiteSpace=wrap;html=1;fontSize=12;glass=0;strokeWidth=1;shadow=0;align=left;" vertex="1" parent="YjpxrNrQ26Oj-FBMNOhv-1">
          <mxGeometry x="441" y="475.5" width="179" height="70" as="geometry" />
        </mxCell>
        <mxCell id="YjpxrNrQ26Oj-FBMNOhv-13" value="Yes" style="text;html=1;align=center;verticalAlign=middle;resizable=0;points=[];autosize=1;strokeColor=none;fillColor=none;" vertex="1" parent="YjpxrNrQ26Oj-FBMNOhv-1">
          <mxGeometry x="350" y="475.5" width="40" height="30" as="geometry" />
        </mxCell>
        <mxCell id="YjpxrNrQ26Oj-FBMNOhv-14" value="Yes" style="text;html=1;align=center;verticalAlign=middle;resizable=0;points=[];autosize=1;strokeColor=none;fillColor=none;" vertex="1" parent="YjpxrNrQ26Oj-FBMNOhv-1">
          <mxGeometry x="373" y="681" width="40" height="30" as="geometry" />
        </mxCell>
        <mxCell id="YjpxrNrQ26Oj-FBMNOhv-15" value="No" style="text;html=1;align=center;verticalAlign=middle;resizable=0;points=[];autosize=1;strokeColor=none;fillColor=none;" vertex="1" parent="YjpxrNrQ26Oj-FBMNOhv-1">
          <mxGeometry x="210" y="631" width="40" height="30" as="geometry" />
        </mxCell>
        <mxCell id="YjpxrNrQ26Oj-FBMNOhv-16" value="" style="edgeStyle=orthogonalEdgeStyle;rounded=0;orthogonalLoop=1;jettySize=auto;html=1;" edge="1" parent="YjpxrNrQ26Oj-FBMNOhv-1" source="YjpxrNrQ26Oj-FBMNOhv-17" target="YjpxrNrQ26Oj-FBMNOhv-20">
          <mxGeometry relative="1" as="geometry" />
        </mxCell>
        <mxCell id="YjpxrNrQ26Oj-FBMNOhv-17" value="List&amp;lt;POItemDataDto&amp;gt; =&amp;nbsp;getPoItemDataByPoId&lt;br&gt;List&amp;lt;ServicePOLineItem&amp;gt; =&amp;nbsp;getServicePOLineItemByPoId&lt;br&gt;finalSize = goodsItems.size() + servicePoItemList.size()" style="rounded=1;whiteSpace=wrap;html=1;fontSize=12;glass=0;strokeWidth=1;shadow=0;align=left;" vertex="1" parent="YjpxrNrQ26Oj-FBMNOhv-1">
          <mxGeometry x="40" y="51" width="330" height="70" as="geometry" />
        </mxCell>
        <mxCell id="YjpxrNrQ26Oj-FBMNOhv-18" style="edgeStyle=orthogonalEdgeStyle;rounded=0;orthogonalLoop=1;jettySize=auto;html=1;" edge="1" parent="YjpxrNrQ26Oj-FBMNOhv-1" source="YjpxrNrQ26Oj-FBMNOhv-20" target="YjpxrNrQ26Oj-FBMNOhv-21">
          <mxGeometry relative="1" as="geometry" />
        </mxCell>
        <mxCell id="YjpxrNrQ26Oj-FBMNOhv-19" style="edgeStyle=orthogonalEdgeStyle;rounded=0;orthogonalLoop=1;jettySize=auto;html=1;entryX=0.5;entryY=0;entryDx=0;entryDy=0;" edge="1" parent="YjpxrNrQ26Oj-FBMNOhv-1" source="YjpxrNrQ26Oj-FBMNOhv-20" target="YjpxrNrQ26Oj-FBMNOhv-9">
          <mxGeometry relative="1" as="geometry" />
        </mxCell>
        <mxCell id="YjpxrNrQ26Oj-FBMNOhv-20" value="list size &amp;gt; 0" style="rhombus;whiteSpace=wrap;html=1;shadow=0;fontFamily=Helvetica;fontSize=12;align=center;strokeWidth=1;spacing=6;spacingTop=-4;horizontal=1;verticalAlign=middle;labelPosition=center;verticalLabelPosition=middle;" vertex="1" parent="YjpxrNrQ26Oj-FBMNOhv-1">
          <mxGeometry x="105" y="191" width="200" height="110" as="geometry" />
        </mxCell>
        <mxCell id="z2Sf4wSe1HB7VQm7Aq6Y-0" value="" style="edgeStyle=orthogonalEdgeStyle;rounded=0;orthogonalLoop=1;jettySize=auto;html=1;" edge="1" parent="YjpxrNrQ26Oj-FBMNOhv-1" source="YjpxrNrQ26Oj-FBMNOhv-21" target="YGzns5jVgDeKJGqmUpQx-0">
          <mxGeometry relative="1" as="geometry" />
        </mxCell>
        <mxCell id="YjpxrNrQ26Oj-FBMNOhv-21" value="PriceValidation match fails (210)&lt;br&gt;validation fails" style="rounded=1;whiteSpace=wrap;html=1;fontSize=12;glass=0;strokeWidth=1;shadow=0;align=left;" vertex="1" parent="YjpxrNrQ26Oj-FBMNOhv-1">
          <mxGeometry x="590" y="211" width="200" height="70" as="geometry" />
        </mxCell>
        <mxCell id="YjpxrNrQ26Oj-FBMNOhv-22" value="Yes" style="text;html=1;align=center;verticalAlign=middle;resizable=0;points=[];autosize=1;strokeColor=none;fillColor=none;" vertex="1" parent="YjpxrNrQ26Oj-FBMNOhv-1">
          <mxGeometry x="210" y="341" width="40" height="30" as="geometry" />
        </mxCell>
        <mxCell id="YjpxrNrQ26Oj-FBMNOhv-23" value="No" style="text;html=1;align=center;verticalAlign=middle;resizable=0;points=[];autosize=1;strokeColor=none;fillColor=none;" vertex="1" parent="YjpxrNrQ26Oj-FBMNOhv-1">
          <mxGeometry x="325" y="221" width="40" height="30" as="geometry" />
        </mxCell>
        <mxCell id="YjpxrNrQ26Oj-FBMNOhv-24" value="No" style="text;html=1;align=center;verticalAlign=middle;resizable=0;points=[];autosize=1;strokeColor=none;fillColor=none;" vertex="1" parent="YjpxrNrQ26Oj-FBMNOhv-1">
          <mxGeometry x="365" y="970" width="40" height="30" as="geometry" />
        </mxCell>
        <mxCell id="YjpxrNrQ26Oj-FBMNOhv-25" value="Yes" style="text;html=1;align=center;verticalAlign=middle;resizable=0;points=[];autosize=1;strokeColor=none;fillColor=none;" vertex="1" parent="YjpxrNrQ26Oj-FBMNOhv-1">
          <mxGeometry x="210" y="1058" width="40" height="30" as="geometry" />
        </mxCell>
        <mxCell id="YGzns5jVgDeKJGqmUpQx-0" value="Task assigned to Buyer" style="rounded=1;whiteSpace=wrap;html=1;fontSize=12;glass=0;strokeWidth=1;shadow=0;align=left;" vertex="1" parent="YjpxrNrQ26Oj-FBMNOhv-1">
          <mxGeometry x="590" y="341" width="200" height="70" as="geometry" />
        </mxCell>
        <mxCell id="Y6RVBrkXn8yJrxf54oC2-0" value="Price Mismatch Validation 210" style="text;html=1;align=center;verticalAlign=middle;resizable=0;points=[];autosize=1;strokeColor=none;fillColor=none;fontSize=20;" vertex="1" parent="YjpxrNrQ26Oj-FBMNOhv-1">
          <mxGeometry x="530" y="11" width="290" height="40" as="geometry" />
        </mxCell>
      </root>
    </mxGraphModel>
  </diagram>
  <diagram name="UOM Mismatch Validation 211" id="YDVlWwIAwWUdA94qPIiq">
    <mxGraphModel dx="880" dy="452" grid="1" gridSize="10" guides="1" tooltips="1" connect="1" arrows="1" fold="1" page="1" pageScale="1" pageWidth="827" pageHeight="1169" math="0" shadow="0">
      <root>
        <mxCell id="8QbDKvXABvi3kEqxuwtY-0" />
        <mxCell id="8QbDKvXABvi3kEqxuwtY-1" parent="8QbDKvXABvi3kEqxuwtY-0" />
        <mxCell id="8QbDKvXABvi3kEqxuwtY-2" style="edgeStyle=orthogonalEdgeStyle;rounded=0;orthogonalLoop=1;jettySize=auto;html=1;" edge="1" parent="8QbDKvXABvi3kEqxuwtY-1" source="8QbDKvXABvi3kEqxuwtY-4" target="8QbDKvXABvi3kEqxuwtY-6">
          <mxGeometry relative="1" as="geometry" />
        </mxCell>
        <mxCell id="8QbDKvXABvi3kEqxuwtY-3" style="edgeStyle=orthogonalEdgeStyle;rounded=0;orthogonalLoop=1;jettySize=auto;html=1;exitX=1;exitY=0.5;exitDx=0;exitDy=0;" edge="1" parent="8QbDKvXABvi3kEqxuwtY-1" source="8QbDKvXABvi3kEqxuwtY-4">
          <mxGeometry relative="1" as="geometry">
            <mxPoint x="550" y="251" as="targetPoint" />
            <Array as="points">
              <mxPoint x="640" y="989" />
              <mxPoint x="640" y="441" />
              <mxPoint x="550" y="441" />
            </Array>
          </mxGeometry>
        </mxCell>
        <mxCell id="8QbDKvXABvi3kEqxuwtY-4" value="finalSize == matchCount" style="rhombus;whiteSpace=wrap;html=1;shadow=0;fontFamily=Helvetica;fontSize=12;align=center;strokeWidth=1;spacing=6;spacingTop=-4;horizontal=1;verticalAlign=middle;labelPosition=center;verticalLabelPosition=middle;" vertex="1" parent="8QbDKvXABvi3kEqxuwtY-1">
          <mxGeometry x="90" y="920" width="230" height="138" as="geometry" />
        </mxCell>
        <mxCell id="8QbDKvXABvi3kEqxuwtY-5" value="Yes" style="text;html=1;align=center;verticalAlign=middle;resizable=0;points=[];autosize=1;strokeColor=none;fillColor=none;" vertex="1" parent="8QbDKvXABvi3kEqxuwtY-1">
          <mxGeometry x="200" y="1131" width="40" height="30" as="geometry" />
        </mxCell>
        <mxCell id="8QbDKvXABvi3kEqxuwtY-6" value="UOM Validation&amp;nbsp;match success(211)&lt;br&gt;&lt;br&gt;Start GR Validation Process..." style="rounded=1;whiteSpace=wrap;html=1;fontSize=12;glass=0;strokeWidth=1;shadow=0;align=left;" vertex="1" parent="8QbDKvXABvi3kEqxuwtY-1">
          <mxGeometry x="66" y="1091" width="278" height="70" as="geometry" />
        </mxCell>
        <mxCell id="8QbDKvXABvi3kEqxuwtY-7" style="edgeStyle=orthogonalEdgeStyle;rounded=0;orthogonalLoop=1;jettySize=auto;html=1;" edge="1" parent="8QbDKvXABvi3kEqxuwtY-1" source="8QbDKvXABvi3kEqxuwtY-9" target="8QbDKvXABvi3kEqxuwtY-11">
          <mxGeometry relative="1" as="geometry" />
        </mxCell>
        <mxCell id="8QbDKvXABvi3kEqxuwtY-8" style="edgeStyle=orthogonalEdgeStyle;rounded=0;orthogonalLoop=1;jettySize=auto;html=1;exitX=1;exitY=0.5;exitDx=0;exitDy=0;entryX=0;entryY=0.5;entryDx=0;entryDy=0;" edge="1" parent="8QbDKvXABvi3kEqxuwtY-1" source="8QbDKvXABvi3kEqxuwtY-9" target="8QbDKvXABvi3kEqxuwtY-12">
          <mxGeometry relative="1" as="geometry" />
        </mxCell>
        <mxCell id="8QbDKvXABvi3kEqxuwtY-9" value="item.getMaterial().&lt;br&gt;equals(prod.getItem()) &lt;br&gt;&amp;amp;&amp;amp;&lt;br&gt;&amp;nbsp;item.getUOM().equals((prod.getUom())" style="rhombus;whiteSpace=wrap;html=1;shadow=0;fontFamily=Helvetica;fontSize=12;align=center;strokeWidth=1;spacing=6;spacingTop=-4;horizontal=1;verticalAlign=middle;labelPosition=center;verticalLabelPosition=middle;" vertex="1" parent="8QbDKvXABvi3kEqxuwtY-1">
          <mxGeometry x="60" y="411" width="290" height="199" as="geometry" />
        </mxCell>
        <mxCell id="8QbDKvXABvi3kEqxuwtY-10" style="edgeStyle=orthogonalEdgeStyle;rounded=0;orthogonalLoop=1;jettySize=auto;html=1;exitX=1;exitY=0.5;exitDx=0;exitDy=0;" edge="1" parent="8QbDKvXABvi3kEqxuwtY-1" source="8QbDKvXABvi3kEqxuwtY-11">
          <mxGeometry relative="1" as="geometry">
            <mxPoint x="410" y="511" as="targetPoint" />
          </mxGeometry>
        </mxCell>
        <mxCell id="8QbDKvXABvi3kEqxuwtY-11" value="item.getExtItemNo().&lt;br&gt;equals(prod.getItem())&lt;br style=&quot;border-color: var(--border-color);&quot;&gt;&amp;amp;&amp;amp;&lt;br style=&quot;border-color: var(--border-color);&quot;&gt;&amp;nbsp;item.getBaseUOM().equals((prod.getUom())" style="rhombus;whiteSpace=wrap;html=1;shadow=0;fontFamily=Helvetica;fontSize=12;align=center;strokeWidth=1;spacing=6;spacingTop=-4;horizontal=1;verticalAlign=middle;labelPosition=center;verticalLabelPosition=middle;" vertex="1" parent="8QbDKvXABvi3kEqxuwtY-1">
          <mxGeometry x="35" y="691" width="340" height="199" as="geometry" />
        </mxCell>
        <mxCell id="8QbDKvXABvi3kEqxuwtY-12" value="matchCount = matchCount + 1;" style="rounded=1;whiteSpace=wrap;html=1;fontSize=12;glass=0;strokeWidth=1;shadow=0;align=left;" vertex="1" parent="8QbDKvXABvi3kEqxuwtY-1">
          <mxGeometry x="441" y="475.5" width="179" height="70" as="geometry" />
        </mxCell>
        <mxCell id="8QbDKvXABvi3kEqxuwtY-13" value="Yes" style="text;html=1;align=center;verticalAlign=middle;resizable=0;points=[];autosize=1;strokeColor=none;fillColor=none;" vertex="1" parent="8QbDKvXABvi3kEqxuwtY-1">
          <mxGeometry x="350" y="475.5" width="40" height="30" as="geometry" />
        </mxCell>
        <mxCell id="8QbDKvXABvi3kEqxuwtY-14" value="Yes" style="text;html=1;align=center;verticalAlign=middle;resizable=0;points=[];autosize=1;strokeColor=none;fillColor=none;" vertex="1" parent="8QbDKvXABvi3kEqxuwtY-1">
          <mxGeometry x="373" y="681" width="40" height="30" as="geometry" />
        </mxCell>
        <mxCell id="8QbDKvXABvi3kEqxuwtY-15" value="No" style="text;html=1;align=center;verticalAlign=middle;resizable=0;points=[];autosize=1;strokeColor=none;fillColor=none;" vertex="1" parent="8QbDKvXABvi3kEqxuwtY-1">
          <mxGeometry x="210" y="631" width="40" height="30" as="geometry" />
        </mxCell>
        <mxCell id="8QbDKvXABvi3kEqxuwtY-16" value="" style="edgeStyle=orthogonalEdgeStyle;rounded=0;orthogonalLoop=1;jettySize=auto;html=1;" edge="1" parent="8QbDKvXABvi3kEqxuwtY-1" source="8QbDKvXABvi3kEqxuwtY-17" target="8QbDKvXABvi3kEqxuwtY-20">
          <mxGeometry relative="1" as="geometry" />
        </mxCell>
        <mxCell id="8QbDKvXABvi3kEqxuwtY-17" value="List&amp;lt;POItemDataDto&amp;gt; =&amp;nbsp;getPoItemDataByPoId&lt;br&gt;List&amp;lt;ServicePOLineItem&amp;gt; =&amp;nbsp;getServicePOLineItemByPoId&lt;br&gt;finalSize = goodsItems.size() + servicePoItemList.size()" style="rounded=1;whiteSpace=wrap;html=1;fontSize=12;glass=0;strokeWidth=1;shadow=0;align=left;" vertex="1" parent="8QbDKvXABvi3kEqxuwtY-1">
          <mxGeometry x="40" y="51" width="330" height="70" as="geometry" />
        </mxCell>
        <mxCell id="8QbDKvXABvi3kEqxuwtY-18" style="edgeStyle=orthogonalEdgeStyle;rounded=0;orthogonalLoop=1;jettySize=auto;html=1;" edge="1" parent="8QbDKvXABvi3kEqxuwtY-1" source="8QbDKvXABvi3kEqxuwtY-20" target="8QbDKvXABvi3kEqxuwtY-22">
          <mxGeometry relative="1" as="geometry" />
        </mxCell>
        <mxCell id="8QbDKvXABvi3kEqxuwtY-19" style="edgeStyle=orthogonalEdgeStyle;rounded=0;orthogonalLoop=1;jettySize=auto;html=1;entryX=0.5;entryY=0;entryDx=0;entryDy=0;" edge="1" parent="8QbDKvXABvi3kEqxuwtY-1" source="8QbDKvXABvi3kEqxuwtY-20" target="8QbDKvXABvi3kEqxuwtY-9">
          <mxGeometry relative="1" as="geometry" />
        </mxCell>
        <mxCell id="8QbDKvXABvi3kEqxuwtY-20" value="list size &amp;gt; 0" style="rhombus;whiteSpace=wrap;html=1;shadow=0;fontFamily=Helvetica;fontSize=12;align=center;strokeWidth=1;spacing=6;spacingTop=-4;horizontal=1;verticalAlign=middle;labelPosition=center;verticalLabelPosition=middle;" vertex="1" parent="8QbDKvXABvi3kEqxuwtY-1">
          <mxGeometry x="105" y="191" width="200" height="110" as="geometry" />
        </mxCell>
        <mxCell id="8QbDKvXABvi3kEqxuwtY-21" value="" style="edgeStyle=orthogonalEdgeStyle;rounded=0;orthogonalLoop=1;jettySize=auto;html=1;" edge="1" parent="8QbDKvXABvi3kEqxuwtY-1" source="8QbDKvXABvi3kEqxuwtY-22" target="8QbDKvXABvi3kEqxuwtY-27">
          <mxGeometry relative="1" as="geometry" />
        </mxCell>
        <mxCell id="8QbDKvXABvi3kEqxuwtY-22" value="UOM Validation match fails (211)&lt;br&gt;validation fails" style="rounded=1;whiteSpace=wrap;html=1;fontSize=12;glass=0;strokeWidth=1;shadow=0;align=left;" vertex="1" parent="8QbDKvXABvi3kEqxuwtY-1">
          <mxGeometry x="590" y="211" width="200" height="70" as="geometry" />
        </mxCell>
        <mxCell id="8QbDKvXABvi3kEqxuwtY-23" value="Yes" style="text;html=1;align=center;verticalAlign=middle;resizable=0;points=[];autosize=1;strokeColor=none;fillColor=none;" vertex="1" parent="8QbDKvXABvi3kEqxuwtY-1">
          <mxGeometry x="210" y="341" width="40" height="30" as="geometry" />
        </mxCell>
        <mxCell id="8QbDKvXABvi3kEqxuwtY-24" value="No" style="text;html=1;align=center;verticalAlign=middle;resizable=0;points=[];autosize=1;strokeColor=none;fillColor=none;" vertex="1" parent="8QbDKvXABvi3kEqxuwtY-1">
          <mxGeometry x="325" y="221" width="40" height="30" as="geometry" />
        </mxCell>
        <mxCell id="8QbDKvXABvi3kEqxuwtY-25" value="No" style="text;html=1;align=center;verticalAlign=middle;resizable=0;points=[];autosize=1;strokeColor=none;fillColor=none;" vertex="1" parent="8QbDKvXABvi3kEqxuwtY-1">
          <mxGeometry x="370" y="960" width="40" height="30" as="geometry" />
        </mxCell>
        <mxCell id="8QbDKvXABvi3kEqxuwtY-26" value="Yes" style="text;html=1;align=center;verticalAlign=middle;resizable=0;points=[];autosize=1;strokeColor=none;fillColor=none;" vertex="1" parent="8QbDKvXABvi3kEqxuwtY-1">
          <mxGeometry x="210" y="1058" width="40" height="30" as="geometry" />
        </mxCell>
        <mxCell id="8QbDKvXABvi3kEqxuwtY-27" value="Task assigned to Buyer" style="rounded=1;whiteSpace=wrap;html=1;fontSize=12;glass=0;strokeWidth=1;shadow=0;align=left;" vertex="1" parent="8QbDKvXABvi3kEqxuwtY-1">
          <mxGeometry x="590" y="341" width="200" height="70" as="geometry" />
        </mxCell>
        <mxCell id="1wfHlkxSJZpGI6aQX48A-0" value="UOM Mismatch Validation 211" style="text;html=1;align=center;verticalAlign=middle;resizable=0;points=[];autosize=1;strokeColor=none;fillColor=none;fontSize=20;" vertex="1" parent="8QbDKvXABvi3kEqxuwtY-1">
          <mxGeometry x="520" y="20" width="290" height="40" as="geometry" />
        </mxCell>
      </root>
    </mxGraphModel>
  </diagram>
  <diagram name="GR Mismatch Validation 220" id="mnh3kVcOnEPt9j7xAk75">
    <mxGraphModel dx="880" dy="452" grid="1" gridSize="10" guides="1" tooltips="1" connect="1" arrows="1" fold="1" page="1" pageScale="1" pageWidth="827" pageHeight="1169" math="0" shadow="0">
      <root>
        <mxCell id="KSW65UM0jSqCLWHy1KYz-0" />
        <mxCell id="KSW65UM0jSqCLWHy1KYz-1" parent="KSW65UM0jSqCLWHy1KYz-0" />
        <mxCell id="KSW65UM0jSqCLWHy1KYz-2" style="edgeStyle=orthogonalEdgeStyle;rounded=0;orthogonalLoop=1;jettySize=auto;html=1;" edge="1" parent="KSW65UM0jSqCLWHy1KYz-1" source="KSW65UM0jSqCLWHy1KYz-4" target="KSW65UM0jSqCLWHy1KYz-6">
          <mxGeometry relative="1" as="geometry" />
        </mxCell>
        <mxCell id="KSW65UM0jSqCLWHy1KYz-3" style="edgeStyle=orthogonalEdgeStyle;rounded=0;orthogonalLoop=1;jettySize=auto;html=1;exitX=1;exitY=0.5;exitDx=0;exitDy=0;" edge="1" parent="KSW65UM0jSqCLWHy1KYz-1" source="KSW65UM0jSqCLWHy1KYz-4">
          <mxGeometry relative="1" as="geometry">
            <mxPoint x="550" y="251" as="targetPoint" />
            <Array as="points">
              <mxPoint x="320" y="980" />
              <mxPoint x="640" y="980" />
              <mxPoint x="640" y="441" />
              <mxPoint x="550" y="441" />
            </Array>
          </mxGeometry>
        </mxCell>
        <mxCell id="KSW65UM0jSqCLWHy1KYz-4" value="finalSize == matchCount" style="rhombus;whiteSpace=wrap;html=1;shadow=0;fontFamily=Helvetica;fontSize=12;align=center;strokeWidth=1;spacing=6;spacingTop=-4;horizontal=1;verticalAlign=middle;labelPosition=center;verticalLabelPosition=middle;" vertex="1" parent="KSW65UM0jSqCLWHy1KYz-1">
          <mxGeometry x="90" y="910" width="230" height="138" as="geometry" />
        </mxCell>
        <mxCell id="KSW65UM0jSqCLWHy1KYz-5" value="Yes" style="text;html=1;align=center;verticalAlign=middle;resizable=0;points=[];autosize=1;strokeColor=none;fillColor=none;" vertex="1" parent="KSW65UM0jSqCLWHy1KYz-1">
          <mxGeometry x="200" y="1131" width="40" height="30" as="geometry" />
        </mxCell>
        <mxCell id="KSW65UM0jSqCLWHy1KYz-6" value="GR Validation&amp;nbsp;match success(220)&lt;br&gt;&lt;br&gt;End of validation Process...&lt;br&gt;&lt;br&gt;Start SAP Posting Process..." style="rounded=1;whiteSpace=wrap;html=1;fontSize=12;glass=0;strokeWidth=1;shadow=0;align=left;" vertex="1" parent="KSW65UM0jSqCLWHy1KYz-1">
          <mxGeometry x="66" y="1080" width="278" height="70" as="geometry" />
        </mxCell>
        <mxCell id="KSW65UM0jSqCLWHy1KYz-7" style="edgeStyle=orthogonalEdgeStyle;rounded=0;orthogonalLoop=1;jettySize=auto;html=1;" edge="1" parent="KSW65UM0jSqCLWHy1KYz-1" source="KSW65UM0jSqCLWHy1KYz-9" target="KSW65UM0jSqCLWHy1KYz-11">
          <mxGeometry relative="1" as="geometry" />
        </mxCell>
        <mxCell id="KSW65UM0jSqCLWHy1KYz-8" style="edgeStyle=orthogonalEdgeStyle;rounded=0;orthogonalLoop=1;jettySize=auto;html=1;exitX=1;exitY=0.5;exitDx=0;exitDy=0;entryX=0;entryY=0.5;entryDx=0;entryDy=0;" edge="1" parent="KSW65UM0jSqCLWHy1KYz-1" source="KSW65UM0jSqCLWHy1KYz-9" target="KSW65UM0jSqCLWHy1KYz-12">
          <mxGeometry relative="1" as="geometry" />
        </mxCell>
        <mxCell id="KSW65UM0jSqCLWHy1KYz-9" value="item.getMaterial().&lt;br&gt;equals(prod.getItem()) &lt;br&gt;&amp;amp;&amp;amp;&lt;br&gt;&amp;nbsp;item.getOpenRecieptQTYforINV().&lt;br&gt;equals((prod.getShippingQuantity())" style="rhombus;whiteSpace=wrap;html=1;shadow=0;fontFamily=Helvetica;fontSize=12;align=center;strokeWidth=1;spacing=6;spacingTop=-4;horizontal=1;verticalAlign=middle;labelPosition=center;verticalLabelPosition=middle;" vertex="1" parent="KSW65UM0jSqCLWHy1KYz-1">
          <mxGeometry x="60" y="411" width="290" height="199" as="geometry" />
        </mxCell>
        <mxCell id="KSW65UM0jSqCLWHy1KYz-10" style="edgeStyle=orthogonalEdgeStyle;rounded=0;orthogonalLoop=1;jettySize=auto;html=1;exitX=1;exitY=0.5;exitDx=0;exitDy=0;" edge="1" parent="KSW65UM0jSqCLWHy1KYz-1" source="KSW65UM0jSqCLWHy1KYz-11">
          <mxGeometry relative="1" as="geometry">
            <mxPoint x="410" y="511" as="targetPoint" />
          </mxGeometry>
        </mxCell>
        <mxCell id="KSW65UM0jSqCLWHy1KYz-11" value="item.getPOItemNo().&lt;br&gt;equals(prod.getItem())&lt;br style=&quot;border-color: var(--border-color);&quot;&gt;&amp;amp;&amp;amp;&lt;br style=&quot;border-color: var(--border-color);&quot;&gt;&amp;nbsp;item.getQuantity().&lt;br&gt;equals((prod.getShippingQuantity())" style="rhombus;whiteSpace=wrap;html=1;shadow=0;fontFamily=Helvetica;fontSize=12;align=center;strokeWidth=1;spacing=6;spacingTop=-4;horizontal=1;verticalAlign=middle;labelPosition=center;verticalLabelPosition=middle;" vertex="1" parent="KSW65UM0jSqCLWHy1KYz-1">
          <mxGeometry x="35" y="691" width="340" height="199" as="geometry" />
        </mxCell>
        <mxCell id="KSW65UM0jSqCLWHy1KYz-12" value="matchCount = matchCount + 1;" style="rounded=1;whiteSpace=wrap;html=1;fontSize=12;glass=0;strokeWidth=1;shadow=0;align=left;" vertex="1" parent="KSW65UM0jSqCLWHy1KYz-1">
          <mxGeometry x="441" y="475.5" width="179" height="70" as="geometry" />
        </mxCell>
        <mxCell id="KSW65UM0jSqCLWHy1KYz-13" value="Yes" style="text;html=1;align=center;verticalAlign=middle;resizable=0;points=[];autosize=1;strokeColor=none;fillColor=none;" vertex="1" parent="KSW65UM0jSqCLWHy1KYz-1">
          <mxGeometry x="350" y="475.5" width="40" height="30" as="geometry" />
        </mxCell>
        <mxCell id="KSW65UM0jSqCLWHy1KYz-14" value="Yes" style="text;html=1;align=center;verticalAlign=middle;resizable=0;points=[];autosize=1;strokeColor=none;fillColor=none;" vertex="1" parent="KSW65UM0jSqCLWHy1KYz-1">
          <mxGeometry x="373" y="681" width="40" height="30" as="geometry" />
        </mxCell>
        <mxCell id="KSW65UM0jSqCLWHy1KYz-15" value="No" style="text;html=1;align=center;verticalAlign=middle;resizable=0;points=[];autosize=1;strokeColor=none;fillColor=none;" vertex="1" parent="KSW65UM0jSqCLWHy1KYz-1">
          <mxGeometry x="210" y="631" width="40" height="30" as="geometry" />
        </mxCell>
        <mxCell id="KSW65UM0jSqCLWHy1KYz-16" value="" style="edgeStyle=orthogonalEdgeStyle;rounded=0;orthogonalLoop=1;jettySize=auto;html=1;" edge="1" parent="KSW65UM0jSqCLWHy1KYz-1" source="KSW65UM0jSqCLWHy1KYz-17" target="KSW65UM0jSqCLWHy1KYz-20">
          <mxGeometry relative="1" as="geometry" />
        </mxCell>
        <mxCell id="KSW65UM0jSqCLWHy1KYz-17" value="Call .net URL passby purchDoc no&lt;br&gt;List&amp;lt;DotNetResponseDto&amp;gt;&amp;nbsp;&lt;br&gt;call&amp;nbsp;&amp;nbsp;.net URL passby activityNumber and deliveryStatus&lt;br&gt;List&amp;lt;DotNetResponseServiceDto&amp;gt; =&amp;nbsp;filter data by purchDoc&amp;nbsp;&lt;br&gt;finalSize = goodsItems.size() + serviceSize()" style="rounded=1;whiteSpace=wrap;html=1;fontSize=12;glass=0;strokeWidth=1;shadow=0;align=left;" vertex="1" parent="KSW65UM0jSqCLWHy1KYz-1">
          <mxGeometry x="40" y="51" width="330" height="70" as="geometry" />
        </mxCell>
        <mxCell id="KSW65UM0jSqCLWHy1KYz-18" style="edgeStyle=orthogonalEdgeStyle;rounded=0;orthogonalLoop=1;jettySize=auto;html=1;" edge="1" parent="KSW65UM0jSqCLWHy1KYz-1" source="KSW65UM0jSqCLWHy1KYz-20" target="KSW65UM0jSqCLWHy1KYz-22">
          <mxGeometry relative="1" as="geometry" />
        </mxCell>
        <mxCell id="KSW65UM0jSqCLWHy1KYz-19" style="edgeStyle=orthogonalEdgeStyle;rounded=0;orthogonalLoop=1;jettySize=auto;html=1;entryX=0.5;entryY=0;entryDx=0;entryDy=0;" edge="1" parent="KSW65UM0jSqCLWHy1KYz-1" source="KSW65UM0jSqCLWHy1KYz-20" target="KSW65UM0jSqCLWHy1KYz-9">
          <mxGeometry relative="1" as="geometry" />
        </mxCell>
        <mxCell id="KSW65UM0jSqCLWHy1KYz-20" value="list size &amp;gt; 0" style="rhombus;whiteSpace=wrap;html=1;shadow=0;fontFamily=Helvetica;fontSize=12;align=center;strokeWidth=1;spacing=6;spacingTop=-4;horizontal=1;verticalAlign=middle;labelPosition=center;verticalLabelPosition=middle;" vertex="1" parent="KSW65UM0jSqCLWHy1KYz-1">
          <mxGeometry x="105" y="191" width="200" height="110" as="geometry" />
        </mxCell>
        <mxCell id="KSW65UM0jSqCLWHy1KYz-21" value="" style="edgeStyle=orthogonalEdgeStyle;rounded=0;orthogonalLoop=1;jettySize=auto;html=1;" edge="1" parent="KSW65UM0jSqCLWHy1KYz-1" source="KSW65UM0jSqCLWHy1KYz-22" target="KSW65UM0jSqCLWHy1KYz-27">
          <mxGeometry relative="1" as="geometry" />
        </mxCell>
        <mxCell id="KSW65UM0jSqCLWHy1KYz-22" value="GR Validation match fails (220)&lt;br&gt;validation fails" style="rounded=1;whiteSpace=wrap;html=1;fontSize=12;glass=0;strokeWidth=1;shadow=0;align=left;" vertex="1" parent="KSW65UM0jSqCLWHy1KYz-1">
          <mxGeometry x="590" y="211" width="200" height="70" as="geometry" />
        </mxCell>
        <mxCell id="KSW65UM0jSqCLWHy1KYz-23" value="Yes" style="text;html=1;align=center;verticalAlign=middle;resizable=0;points=[];autosize=1;strokeColor=none;fillColor=none;" vertex="1" parent="KSW65UM0jSqCLWHy1KYz-1">
          <mxGeometry x="210" y="341" width="40" height="30" as="geometry" />
        </mxCell>
        <mxCell id="KSW65UM0jSqCLWHy1KYz-24" value="No" style="text;html=1;align=center;verticalAlign=middle;resizable=0;points=[];autosize=1;strokeColor=none;fillColor=none;" vertex="1" parent="KSW65UM0jSqCLWHy1KYz-1">
          <mxGeometry x="325" y="221" width="40" height="30" as="geometry" />
        </mxCell>
        <mxCell id="KSW65UM0jSqCLWHy1KYz-25" value="No" style="text;html=1;align=center;verticalAlign=middle;resizable=0;points=[];autosize=1;strokeColor=none;fillColor=none;" vertex="1" parent="KSW65UM0jSqCLWHy1KYz-1">
          <mxGeometry x="365" y="950" width="40" height="30" as="geometry" />
        </mxCell>
        <mxCell id="KSW65UM0jSqCLWHy1KYz-26" value="Yes" style="text;html=1;align=center;verticalAlign=middle;resizable=0;points=[];autosize=1;strokeColor=none;fillColor=none;" vertex="1" parent="KSW65UM0jSqCLWHy1KYz-1">
          <mxGeometry x="210" y="1058" width="40" height="30" as="geometry" />
        </mxCell>
        <mxCell id="KSW65UM0jSqCLWHy1KYz-27" value="Task assigned to Store Manager" style="rounded=1;whiteSpace=wrap;html=1;fontSize=12;glass=0;strokeWidth=1;shadow=0;align=left;" vertex="1" parent="KSW65UM0jSqCLWHy1KYz-1">
          <mxGeometry x="590" y="341" width="200" height="70" as="geometry" />
        </mxCell>
        <mxCell id="tRPJ1FTbVSUin73-vPBC-0" value="Service" style="text;html=1;align=center;verticalAlign=middle;resizable=0;points=[];autosize=1;strokeColor=none;fillColor=none;" vertex="1" parent="KSW65UM0jSqCLWHy1KYz-1">
          <mxGeometry x="30" y="720" width="60" height="30" as="geometry" />
        </mxCell>
        <mxCell id="tRPJ1FTbVSUin73-vPBC-1" value="Goods" style="text;html=1;align=center;verticalAlign=middle;resizable=0;points=[];autosize=1;strokeColor=none;fillColor=none;" vertex="1" parent="KSW65UM0jSqCLWHy1KYz-1">
          <mxGeometry x="30" y="440" width="60" height="30" as="geometry" />
        </mxCell>
        <mxCell id="pyTBdqXEYeTZ5UBX9wWU-0" value="GR Mismatch Validation 220" style="text;html=1;align=center;verticalAlign=middle;resizable=0;points=[];autosize=1;strokeColor=none;fillColor=none;fontSize=20;" vertex="1" parent="KSW65UM0jSqCLWHy1KYz-1">
          <mxGeometry x="520" y="20" width="280" height="40" as="geometry" />
        </mxCell>
      </root>
    </mxGraphModel>
  </diagram>
</mxfile>
